<svg xmlns="http://www.w3.org/2000/svg" width="32" height="32" viewBox="0 0 32 32"><path fill="#FFF" stroke="#252525" stroke-width=".632" d="M21.300407,0 C23.3444321,0 25,1.65618061 25,3.70096225 L25,21.3082902 C24.990751,23.3438194 23.3351831,25 21.291158,25 L3.69959304,25 C1.65556789,25 0,23.3438194 0,21.2990377 L0,3.70096225 C0,1.65618061 1.65556789,0 3.69959304,0 L21.300407,0 Z M21.0969293,5.19059956 L14.2156863,5.19059956 L3.89382168,19.8186528 L10.7750647,19.8186528 L21.0969293,5.19059956 Z M20.6622272,17.6628423 L14.1046985,17.6628423 C13.7717351,17.6628423 13.4572697,17.8293856 13.27229,18.0977054 L12.0606733,19.8186528 L20.6622272,19.8186528 L20.6622272,17.6628423 Z M4.33792619,5.18188468 L4.32851642,7.33715766 L10.8953015,7.33715766 C11.2282649,7.33715766 11.5427303,7.17061436 11.72771,6.9022946 L12.9300777,5.19059956 L10.9486193,5.19032094 L8.48242046,5.18936418 L8.19617596,5.18919593 L7.0796984,5.18837065 L6.81337683,5.18812321 L6.18237813,5.18742598 L6.06327955,5.18727245 L5.51109234,5.18643015 L5.41030877,5.18624623 L5.04408131,5.18545649 C4.89527637,5.18508582 4.76598497,5.18468843 4.65979281,5.1842624 L4.4792699,5.18337159 C4.38087054,5.1827515 4.32778622,5.1820782 4.32851642,5.18134715 Z" transform="translate(4 4)"/></svg>