<svg xmlns="http://www.w3.org/2000/svg" width="32" height="32" viewBox="0 0 32 32"><defs><linearGradient id="a" x1="85.986%" x2="14.014%" y1="0%" y2="100%"><stop offset="0%" stop-color="#2354DE"/><stop offset="100%" stop-color="#8C89FC"/></linearGradient><linearGradient id="b" x1="14.014%" x2="85.986%" y1="0%" y2="100%"><stop offset="0%" stop-color="#3D9FE6"/><stop offset="100%" stop-color="#8BAEFE"/></linearGradient><linearGradient id="c" x1="14.014%" x2="85.986%" y1="0%" y2="100%"><stop offset="0%" stop-color="#8C89FC"/><stop offset="100%" stop-color="#2354DE"/></linearGradient><linearGradient id="d" x1="85.986%" x2="14.014%" y1="0%" y2="100%"><stop offset="0%" stop-color="#7F9DFB"/><stop offset="100%" stop-color="#326CE3"/></linearGradient></defs><g fill="none" fill-rule="evenodd" transform="translate(5.215 3)"><path fill="url(#a)" d="M10.6045918,0 L10.6045918,3.31632653 C10.6045918,8.38832933 6.49292117,12.5 1.42091837,12.5 L0,12.5 L0.000199137333,6.12244898 L10.6045918,0 Z"/><path fill="url(#b)" d="M10.6045918,25 L10.6045918,21.6836735 C10.6045918,16.6116707 6.49292117,12.5 1.42091837,12.5 L0,12.5 L0.000199137333,18.877551 L10.6045918,25 Z"/><path fill="url(#c)" d="M10.6045918,0 L10.6045918,3.31632653 C10.6045918,8.38832933 14.7162625,12.5 19.7882653,12.5 L21.2091837,12.5 L21.2089845,6.12244898 L10.6045918,0 Z"/><path fill="url(#d)" d="M10.6045918,25 L10.6045918,21.6836735 C10.6045918,16.6116707 14.7162625,12.5 19.7882653,12.5 L21.2091837,12.5 L21.2089845,18.877551 L10.6045918,25 Z"/></g></svg>