<svg xmlns="http://www.w3.org/2000/svg" xmlns:xlink="http://www.w3.org/1999/xlink" width="649" height="750" viewBox="0 0 649 750"><defs><linearGradient id="a" x1="50%" x2="50%" y1="29.372%" y2="100%"><stop offset="0%" stop-color="#FFF5CD"/><stop offset="29.349%" stop-color="#FFF7CC"/><stop offset="100%" stop-color="#FFCB00"/></linearGradient><linearGradient id="d" x1="31.521%" x2="87.374%" y1="74.721%" y2="0%"><stop offset="0%" stop-color="#FA0"/><stop offset="100%" stop-color="#FF5900"/></linearGradient><linearGradient id="e" x1="100%" x2="60.085%" y1="0%" y2="0%"><stop offset="0%" stop-color="#9E2800"/><stop offset="100%" stop-color="#EF5D00" stop-opacity="0"/></linearGradient><linearGradient id="h" x1="12.645%" x2="87.355%" y1="100%" y2="0%"><stop offset="0%" stop-color="#FFDB4B"/><stop offset="100%" stop-color="#FFAB42"/></linearGradient><linearGradient id="i" x1="60.147%" x2="100%" y1="0%" y2="0%"><stop offset="0%" stop-color="#FFC847" stop-opacity="0"/><stop offset="100%" stop-color="#F95F00"/></linearGradient><radialGradient id="b" cx="50%" cy="100%" r="100%" fx="50%" fy="100%" gradientTransform="matrix(0 -1 .88978 0 -.39 1.5)"><stop offset="0%" stop-color="#FFC600"/><stop offset="100%" stop-color="#FF9A00"/></radialGradient><radialGradient id="f" cx="50%" cy="100%" r="100%" fx="50%" fy="100%" gradientTransform="matrix(0 -1 .90392 0 -.404 1.5)"><stop offset="0%" stop-color="#FFF2C3"/><stop offset="100%" stop-color="#FFDD4B"/></radialGradient><path id="c" d="M103.527394,2.4076943 L323.347979,0 L323.347979,0 L0,374 L99.7099567,5.3630535 C100.177495,3.63452195 101.736856,2.42730606 103.527394,2.4076943 Z"/><path id="g" d="M103.653034,8.47216207 L322.847744,2.48686423 L322.847744,2.48686423 L0,376 L99.9044315,11.4135565 C100.369973,9.71463222 101.892136,8.52024488 103.653034,8.47216207 Z"/></defs><g fill="none" fill-rule="evenodd" transform="translate(.152 .449)"><polygon fill="url(#a)" points="323.699 .551 -.152 376.512 322.848 747.551 645.848 376.512"/><g transform="translate(-.152 374.551)"><path fill="url(#b)" d="M231.36511,7.41737681 L323.652021,374 L323.652021,374 L647,2.44084937 L235.244078,2.44084937 C233.034939,2.44084937 231.244078,4.23171037 231.244078,6.44084937 C231.244078,6.77009917 231.284729,7.09808943 231.36511,7.41737681 Z"/><g transform="matrix(-1 0 0 1 323.348 0)"><use xlink:href="#c" fill="url(#d)"/><use xlink:href="#c" fill="url(#e)"/></g></g><g transform="matrix(1 0 0 -1 -.152 376.551)"><path fill="url(#f)" d="M231.358792,12.7083589 L323.92668,376 L323.92668,376 L646,0 L235.159778,7.72140959 C232.951029,7.76292124 231.194136,9.58711788 231.235648,11.7958668 C231.241434,12.103757 231.282756,12.4099491 231.358792,12.7083589 Z"/><g transform="matrix(-1 0 0 1 322.848 0)"><use xlink:href="#g" fill="url(#h)"/><use xlink:href="#g" fill="url(#i)"/></g></g></g></svg>