<svg xmlns="http://www.w3.org/2000/svg" width="32" height="32" viewBox="0 0 32 32"><g fill="none" fill-rule="evenodd" transform="translate(3.056 6.52)"><path fill="#29E154" d="M0.492720119,18.4801898 C0.130227768,18.4801898 -0.132681151,18.1404397 -0.0363283437,17.7964888 L4.59214648,1.27517778 C4.78998557,0.568921563 5.62963554,0.257234482 6.25210155,0.658965448 L12.3422468,4.58942468 C12.7071927,4.82493919 13.1792291,4.82532178 13.5445561,4.59033988 L19.6606012,0.656808722 C20.2836313,0.256103982 21.1225953,0.568942568 21.319474,1.27535782 L25.9237528,17.7971639 C26.0195626,18.1409648 25.7566765,18.4801898 25.3944746,18.4801898 L19.5160863,18.4801898 C20.5862284,17.2607205 21.1749591,15.7031515 21.1749591,14.0918707 L21.1749591,13.9038041 C21.1749591,12.3277061 20.5924786,10.8054699 19.5360562,9.62088331 L18.7816213,5.89397027 C18.7373369,5.67500442 18.5420588,5.51731959 18.3152253,5.51731959 C18.2122508,5.51731959 18.1120964,5.55015435 18.0297778,5.61092527 L15.1854407,7.71049643 C14.9828454,7.86000444 14.720874,7.90763996 14.4774243,7.83915734 C13.4745852,7.55718507 12.4116079,7.55718507 11.4088451,7.83915734 C11.1653192,7.90763996 10.9033478,7.86000444 10.7008287,7.71049643 L7.85519579,5.61000256 C7.77371559,5.54983177 7.67455214,5.51731959 7.57264473,5.51731959 C7.34556728,5.51731959 7.15083038,5.6767598 7.10953387,5.89648333 L6.37761458,9.79087085 C5.30969049,10.8596319 4.71126458,12.2986747 4.71126458,13.7976557 L4.71126458,14.1539094 C4.71126458,15.7257315 5.28258632,17.2457922 6.3219428,18.4392307 L6.35763707,18.4801898 L0.492720119,18.4801898 Z"/><path fill="#000" fill-rule="nonzero" d="M9.94361383,14.4801898 L11.5799775,14.4801898 L11.5799775,10.4801898 L10.1915479,10.4801898 L9.94361383,14.4801898 Z M15.9436138,14.4801898 L14.3072502,14.4801898 L14.3072502,10.4801898 L15.6956744,10.4801898 L15.9436138,14.4801898 Z"/></g></svg>