<svg xmlns="http://www.w3.org/2000/svg" width="32" height="32" viewBox="0 0 32 32"><g fill="none" fill-rule="evenodd" transform="translate(.5 1)"><path fill="#FFD3BC" fill-rule="nonzero" d="M7.95528841,19.4281616 C6.85653353,19.4281616 5.89004183,19.1794128 5.05581331,18.6819153 C4.2215848,18.1844177 3.56954622,17.4980164 3.09969759,16.6227112 C2.62984896,15.747406 2.39492464,14.7419434 2.39492464,13.6063232 C2.39492464,12.7706299 2.56414461,11.9507446 2.90258455,11.1466675 C3.24102449,10.3425903 3.7016263,9.65118408 4.28438997,9.07244873 C4.52694368,9.74151611 4.96001863,10.3038025 5.58361483,10.7593079 C6.20721102,11.2148132 7.01668978,11.4425659 8.01205111,11.4425659 C8.12923861,11.4425659 8.23040438,11.3980103 8.31554842,11.3088989 C8.40069246,11.2197876 8.44326448,11.1166382 8.44326448,10.9994507 C8.44326448,10.8900757 8.40069246,10.790863 8.31554842,10.7018127 C8.23040438,10.6127625 8.12923861,10.5682373 8.01205111,10.5682373 C7.34237337,10.5682373 6.77962923,10.433075 6.32381868,10.1627502 C5.86800814,9.89242554 5.524014,9.54006958 5.29183626,9.10568237 C5.05965853,8.67129517 4.94356966,8.20629883 4.94356966,7.71069336 C4.94356966,7.09106445 5.11959505,6.50241089 5.47164583,5.94473267 C5.82369661,5.38705444 6.32214022,4.93414307 6.96697664,4.58599854 C7.61181307,4.237854 8.37594271,4.06378174 9.25936556,4.06378174 C9.93648958,4.06378174 10.5801053,4.17736816 11.1902127,4.40454102 C10.9889188,4.75402832 10.827023,5.13705444 10.7045255,5.55361938 C10.5820279,5.97018433 10.5073514,6.41186523 10.4804959,6.87866211 C10.4761014,7.01464844 10.5164762,7.12716675 10.6016202,7.21621704 C10.6867642,7.30526733 10.7918363,7.34979248 10.9168363,7.34979248 C11.0340238,7.34979248 11.1341214,7.30908203 11.2171292,7.22766113 C11.300137,7.14624023 11.3438382,7.04321289 11.3482327,6.9185791 C11.3794827,6.13476562 11.5784574,5.43832397 11.9451566,4.82925415 C12.3118558,4.22018433 12.8085599,3.74261475 13.4352689,3.39654541 C14.0619779,3.05047607 14.780972,2.87744141 15.5922513,2.87744141 C16.3009915,2.87744141 16.9706693,3.04486084 17.6012845,3.37969971 C18.2318997,3.71453857 18.7196927,4.20758057 19.0646634,4.85882568 C19.301846,4.77471924 19.5407681,4.71447754 19.7814298,4.67810059 C20.0220914,4.64172363 20.2403836,4.62634277 20.4363065,4.63195801 C21.0453153,4.63195801 21.6220975,4.73062134 22.1666532,4.927948 C22.7112088,5.12527466 23.1918302,5.40567017 23.6085172,5.76913452 C24.0252042,6.13259888 24.353024,6.56097412 24.5919766,7.05426025 C24.8309293,7.54754639 24.9504056,8.08734131 24.9504056,8.67364502 C24.9504056,9.57952881 24.8007779,10.3427734 24.5015225,10.9633789 C24.2022672,11.5839844 23.806088,12.1149902 23.3129849,12.5563965 C22.8198819,12.9978027 22.276608,13.3911743 21.6831632,13.7365112 C21.0897183,14.0818481 20.4982266,14.4268494 19.9086881,14.7715149 C19.3191495,15.1161804 18.7778287,15.5021362 18.2847257,15.9293823 C17.7916226,16.3566284 17.3948941,16.8713989 17.0945401,17.4736938 C16.7941861,18.0759888 16.6440091,18.814209 16.6440091,19.6883545 C16.6440091,20.1755371 16.713223,20.6149292 16.8516507,21.0065308 C16.4998441,21.0390015 16.2082181,21.0633545 15.9767728,21.0795898 C15.7453275,21.0958252 15.5441556,21.1039429 15.3732572,21.1039429 C14.5120511,21.1039429 13.6928372,20.9725342 12.9156156,20.7097168 C12.1383939,20.4468994 11.4624906,20.0447388 10.8879056,19.5032349 C11.6427884,19.0609741 12.2299466,18.4765625 12.6493802,17.75 C13.0688138,17.0234375 13.2785306,16.189209 13.2785306,15.2473145 C13.2785306,15.1505127 13.2760282,15.0550842 13.2710233,14.9610291 C13.2660184,14.8669739 13.2585111,14.772583 13.2485013,14.6778564 C14.3528714,14.4094238 15.1813016,13.911377 15.7337918,13.1837158 C16.2862821,12.4560547 16.5558133,11.5140991 16.5423856,10.3578491 C16.5423856,10.2350464 16.4998136,10.1305237 16.4146695,10.044281 C16.3295255,9.95803833 16.2255521,9.91491699 16.1027493,9.91491699 C15.9855618,9.91491699 15.8838162,9.95803833 15.7975125,10.044281 C15.7112088,10.1305237 15.668057,10.2350464 15.668057,10.3578491 C15.668057,11.3137817 15.4561124,12.0812073 15.0322232,12.6601257 C14.6083341,13.2390442 13.9443631,13.6395874 13.0403104,13.8617554 C12.9399686,13.5036011 12.8015103,13.1728821 12.6249356,12.8695984 C12.4483609,12.5663147 12.2438626,12.3140869 12.0114408,12.112915 C11.935513,12.0456543 11.8649564,11.9979553 11.7997708,11.9698181 C11.7345853,11.9416809 11.659512,11.9276123 11.5745511,11.9276123 C11.4473538,11.9276123 11.3447537,11.965271 11.2667508,12.0405884 C11.1887479,12.1159058 11.1497464,12.2128296 11.1497464,12.3313599 C11.1497464,12.4369507 11.1730313,12.5201416 11.2196012,12.5809326 C11.266171,12.6417236 11.3351102,12.7155151 11.4264188,12.8023071 C11.7429471,13.1167603 11.986691,13.4895325 12.1576505,13.9206238 C12.3286099,14.3517151 12.4140897,14.7907104 12.4140897,15.2376099 C12.4140897,15.9904175 12.245419,16.6842346 11.9080777,17.3190613 C11.5707364,17.9538879 11.0714993,18.4641113 10.4103665,18.8497314 C9.74923372,19.2353516 8.93087435,19.4281616 7.95528841,19.4281616 Z"/><path fill="#F1AC95" fill-rule="nonzero" d="M24.6352811,26.1922607 C24.0906034,26.1922607 23.6110196,26.0337524 23.1965299,25.7167358 C22.7820401,25.3997192 22.4511075,24.9606628 22.203732,24.3995667 C21.9563565,23.8384705 21.8055081,23.1977539 21.7511868,22.477417 C21.5971341,22.4852295 21.444943,22.4916382 21.2946134,22.4966431 C21.1442838,22.5016479 20.9281888,22.5041504 20.6463284,22.5041504 C19.9887357,22.5041504 19.4228482,22.377594 18.9486661,22.1244812 C18.474484,21.8713684 18.1101956,21.5270691 17.8558011,21.0915833 C17.6014066,20.6560974 17.4775052,20.1706543 17.484097,19.6352539 C17.4950833,18.8966064 17.6474271,18.2706299 17.9411283,17.7573242 C18.2348294,17.2440186 18.6225553,16.7969055 19.1043057,16.4159851 C19.5860562,16.0350647 20.1173978,15.677887 20.6983304,15.3444519 C21.279263,15.0110168 21.8620877,14.6611633 22.4468045,14.2948914 C23.0315213,13.9286194 23.5742459,13.5032959 24.0749784,13.0189209 C24.5757108,12.5345459 24.9904752,11.9481506 25.3192716,11.2597351 C25.648068,10.5713196 25.8363919,9.73815918 25.8842435,8.76025391 C26.9954495,9.05566406 27.88168,9.62524414 28.5429349,10.4689941 C29.2041898,11.3127441 29.5348172,12.3261719 29.5348172,13.5092773 C29.5348172,14.7564697 29.111691,15.7553711 28.2654386,16.5059814 C27.4191861,17.2565918 26.3043485,17.6182861 24.9209256,17.5910645 C24.7959256,17.59021 24.6908231,17.6325684 24.605618,17.7181396 C24.5204129,17.8037109 24.4778104,17.907959 24.4778104,18.0308838 C24.4778104,18.1502686 24.5204129,18.250885 24.605618,18.3327332 C24.6908231,18.4145813 24.7959256,18.4577026 24.9209256,18.4620972 C25.5215116,18.4751587 26.0808682,18.4208374 26.5989957,18.2991333 C27.1171231,18.1774292 27.5890164,18.0006714 28.0146756,17.7688599 C28.0281034,18.0234985 28.0415311,18.27948 28.0549588,18.5368042 C28.0683866,18.7941284 28.0751004,19.055603 28.0751004,19.321228 C28.0751004,20.3121948 28.0007291,21.225647 27.8519864,22.0615845 C27.7032437,22.897522 27.485745,23.6247253 27.1994901,24.2431946 C26.9132352,24.8616638 26.5557218,25.3411255 26.1269498,25.6815796 C25.6981778,26.0220337 25.2009549,26.1922607 24.6352811,26.1922607 Z"/></g></svg>