<svg xmlns="http://www.w3.org/2000/svg" width="32" height="32" viewBox="0 0 32 32"><path fill="#171717" d="M15.3348215,6.36570817 C15.3348215,5.82470797 14.8848712,5.38570161 14.3325974,5.38570161 C13.7803995,5.38570161 13.3304492,5.82570682 13.3304492,6.36570817 L13.3304492,22.6086993 C13.3304492,23.8656985 12.284383,24.8887445 10.99893,24.8887445 C9.71355274,24.8887445 8.66739556,23.8656985 8.66739556,22.6086993 L8.66739556,12.187718 C8.66739556,11.6467104 8.21744527,11.2076966 7.66523217,11.2076966 C7.11302666,11.2076966 6.66307637,11.6476722 6.66307637,12.187718 L6.66307637,16.6047136 C6.66307637,17.8617128 5.61694194,18.8846847 4.33152681,18.8846847 C3.04610408,18.8846847 2,17.8617128 2,16.6047136 L2,15.0037395 C2,14.6447448 2.29757855,14.3537461 2.6646946,14.3537461 C3.03181369,14.3537461 3.32938617,14.6447448 3.32938617,15.0037395 L3.32938617,16.6047136 C3.32938617,17.1457212 3.77931371,17.5846979 4.33152681,17.5846979 C4.88373232,17.5846979 5.33368261,17.1446853 5.33368261,16.6047136 L5.33368261,12.187718 C5.33368261,10.930704 6.37981704,9.9077024 7.66523217,9.9077024 C8.9506549,9.9077024 9.99678173,10.930704 9.99678173,12.187718 L9.99678173,22.6086993 C9.99678173,23.1497069 10.446732,23.5886837 10.99893,23.5886837 C11.5511279,23.5886837 12.0010782,23.1486711 12.0010782,22.6086993 L12.0010782,16.2366923 L12.0010782,6.36570817 C12.0010782,5.10870897 13.0472202,4.0857 14.3325974,4.0857 C15.6180505,4.0857 16.6641925,5.10870897 16.6641925,6.36570817 L16.6641925,19.8156884 C16.6641925,20.174683 16.3666276,20.4656818 15.999507,20.4656818 C15.6323864,20.4656818 15.3348215,20.174683 15.3348215,19.8156884 L15.3348215,6.36570817 Z M27.6684808,9.9077024 C26.3830277,9.9077024 25.3368857,10.930704 25.3368857,12.187718 L25.3368857,20.8926723 C25.3368857,21.4336799 24.8869354,21.8727307 24.3347375,21.8727307 C23.7825396,21.8727307 23.3325893,21.4327181 23.3325893,20.8926723 L23.3325893,6.36570817 C23.3325893,5.10870897 22.2864473,4.0857 21.00107,4.0857 C19.715617,4.0857 18.6695508,5.10870897 18.6695508,6.36570817 L18.6695508,24.8057288 C18.6695508,25.3467364 18.2196005,25.7857132 17.6673268,25.7857132 C17.1151288,25.7857132 16.6651785,25.3457006 16.6651785,24.8057288 L16.6651785,22.5227241 C16.6651785,22.1637294 16.3676136,21.8727307 16.000493,21.8727307 C15.6333724,21.8727307 15.3358075,22.1637294 15.3358075,22.5227241 L15.3358075,24.8057288 C15.3358075,26.062728 16.3819495,27.0857 17.6673268,27.0857 C18.9527798,27.0857 19.9989218,26.062728 19.9989218,24.8057288 L19.9989218,6.36570817 C19.9989218,5.82470797 20.4488721,5.38570161 21.00107,5.38570161 C21.553268,5.38570161 22.0032183,5.82570682 22.0032183,6.36570817 L22.0032183,20.8926723 C22.0032183,22.1496715 23.0493603,23.1727175 24.3347375,23.1727175 C25.6201905,23.1727175 26.6663326,22.1496715 26.6663326,20.8926723 L26.6663326,12.187718 C26.6663326,11.6467104 27.1162828,11.2076966 27.6684808,11.2076966 C28.2206787,11.2076966 28.670629,11.6476722 28.670629,12.187718 L28.670629,19.8156884 C28.670629,20.174683 28.9681939,20.4656818 29.3353145,20.4656818 C29.7024351,20.4656818 30,20.174683 30,19.8156884 L30,12.187718 C30,10.930704 28.953858,9.9077024 27.6684808,9.9077024 Z"/></svg>