<svg xmlns="http://www.w3.org/2000/svg" width="32" height="32" viewBox="0 0 32 32"><defs><linearGradient id="a" x1="63.352%" x2="60.61%" y1="0%" y2="100%"><stop offset="0%" stop-color="#12DFD9"/><stop offset="100%" stop-color="#C330EF"/></linearGradient><linearGradient id="b" x1="50%" x2="50%" y1="0%" y2="100%"><stop offset="0%" stop-color="#F473F7"/><stop offset="100%" stop-color="#EE5BA6"/></linearGradient><linearGradient id="c" x1="50%" x2="50%" y1="0%" y2="100%"><stop offset="0%" stop-color="#18E9EB"/><stop offset="100%" stop-color="#7A58C8"/></linearGradient></defs><g fill="none" fill-rule="evenodd" transform="translate(3.5 2.5)"><path fill="url(#a)" d="M12.4153032,1 C9.43704859,2.43493361 6.77318659,4.97149621 5.7775392,8.48598761 C5.1655076,10.6463707 5.56403297,14.5247742 7.18714253,16.9383018 C8.84471214,19.4030708 10.972035,19.900803 12.0129744,22.1370791 C13.2149823,24.7193824 9.59270646,25.8543452 6.77318659,24.3546603 C3.95366672,22.8549753 -0.955108077,18.7693088 0.162654239,11.0729779 C1.28041655,3.3766471 8.433289,1 12.4153032,1 Z"/><path fill="url(#b)" d="M25,1.97470234 C22.0217454,3.40963595 19.3578834,5.94619854 18.362236,9.46068995 C17.7502044,11.6210731 18.1487298,15.4994766 19.7718393,17.9130042 C21.429409,20.3777731 23.5567318,20.8755054 24.5976713,23.1117814 C25.7996791,25.6940847 22.1774033,26.8290476 19.3578834,25.3293626 C16.5383635,23.8296776 11.6295887,19.7440111 12.7473511,12.0476803 C13.8651134,4.35134943 21.0179858,1.97470234 25,1.97470234 Z" transform="rotate(180 18.792 13.987)"/><polygon fill="url(#c)" points="12.585 9.776 11.807 12.666 9.014 13.427 11.807 14.33 12.585 16.977 13.348 14.33 16.096 13.427 13.348 12.666"/></g></svg>