<svg xmlns="http://www.w3.org/2000/svg" width="32" height="32" viewBox="0 0 32 32"><g fill="none" fill-rule="evenodd"><path fill="#464646" d="M25.5649627,8.04590036 C23.9408863,5.86097335 21.5947587,4.18770987 18.7582828,3.42909256 C15.921807,2.67047471 13.0513839,2.94809635 10.5511468,4.02952998 L25.5649627,8.04590036 Z"/><path fill="#373737" d="M5.19718009,8.42628534 C6.30719914,6.81166678 7.77339421,5.49834326 9.45406004,4.56863288 L20.5143761,7.52778051 C19.7885529,7.94582737 19.0110007,8.66624531 18.4091118,9.45822082 L27.5031853,11.8911782 C27.7612917,12.7428747 27.9294111,13.6257767 27.9999997,14.5269717 L5.19718009,8.42628534 Z"/><path fill="#222" d="M27.6082599,18.7348796 C27.480015,19.2137235 27.3253667,19.6785787 27.1464705,20.1278311 L3.13179243,13.7032526 C3.20184218,13.2244087 3.30098951,12.7450268 3.42923443,12.2661829 C3.73098503,11.1411688 4.17714803,10.0936305 4.74293443,9.13809485 L16.4945983,12.2823237 C16.0241874,12.9537812 15.5958062,13.6833456 15.2186153,14.4640226 L27.8146373,17.8342227 C27.7569809,18.1349797 27.6880089,18.4351987 27.6077211,18.7359557 L27.6082599,18.7348796 Z"/><path fill="#1A1A1A" d="M3.72667427,19.6914914 C3.14418585,18.0628841 2.89577868,16.3013842 3.04018908,14.5113689 L14.123145,17.4764349 C14.0433961,17.7282314 13.9684967,17.9832561 13.8989858,18.2420471 C13.7578087,18.7687753 13.642496,19.2944276 13.5530479,19.8163136 L25.5207775,23.0181113 C24.9636126,23.7568222 24.3288541,24.4261276 23.6321286,25.0168811 L3.72667427,19.6914914 Z"/><path fill="#121212" d="M12.2792202,27.5714325 C8.5013835,26.5604801 5.59269174,23.9284528 4.10332637,20.625506 L13.1219725,23.0385564 C13.1074237,23.8784163 13.1596916,24.6967551 13.2744654,25.4817362 L19.8273497,27.2346277 C17.488227,28.0933185 14.8699831,28.2644111 12.2792202,27.5714325 Z"/></g></svg>