<svg xmlns="http://www.w3.org/2000/svg" width="32" height="32" viewBox="0 0 32 32"><path fill="#232320" fill-rule="evenodd" d="M21.6926649,4.5949486 C24.3028592,7.35613846 24.1144583,10.9797632 22.9444349,13.3977892 L22.8870624,13.5138409 C21.7158254,15.8330755 21.4262307,18.4115607 23.610144,18.8775172 C25.7536145,19.3348449 26.4963036,18.0680125 26.5230755,16.7289655 L26.5239357,16.0708204 C26.5288115,15.0846835 26.5841548,14.5056992 27.0976108,13.6663194 C27.7044224,12.674325 29.0175462,12.2666166 29.4006949,12.8926084 C29.7838436,13.5186001 28.4923294,13.8513564 28.3144157,14.9729038 C28.1365021,16.0944512 29.4006949,18.0434565 27.8485026,20.1017029 C26.2963102,22.1599493 22.2804782,21.6977214 20.785762,20.8725019 C22.1414855,22.9081615 25.9471307,24.6124524 26.8422977,24.0759876 C27.7374646,23.5395227 27.1775877,22.7333305 27.3844308,22.6538473 C27.5912739,22.5743641 28.7953108,23.3678577 28.3144157,24.9473796 C27.8772384,26.3833087 26.7400504,26.4518451 25.4326386,26.3449342 L25.0358382,26.3087895 C23.5660636,26.1657005 20.3036675,24.9099526 19.5752249,24.4929701 C19.7733313,25.4749496 20.3945226,26.4354429 21.1772347,27.2262311 C21.9599469,28.0170192 22.9364759,28.5526356 22.5726365,29.0653216 C22.208797,29.5780077 20.0364074,29.3564572 18.2795317,27.8729818 C17.1082813,26.8839982 16.2933918,25.8555661 15.8348633,24.7876854 C14.7689076,26.4133825 13.6085722,27.5105111 12.3538571,28.0790713 C10.4717846,28.9319116 8.64702364,28.9014585 8.64702364,28.2426884 C8.64702364,27.5839182 10.3902571,26.6327736 11.1304242,25.8583594 C11.623869,25.3420832 12.0316799,24.6730984 12.3538571,23.851405 L11.9196278,24.0880053 C8.77642726,25.7845175 6.53848665,26.6327736 5.20580591,26.6327736 C3.11592021,26.6327736 2.12097897,25.3707924 2.58254219,23.6050508 C2.67536226,23.2499613 3.11807463,22.5504516 3.3923749,22.6538473 C3.66667517,22.7572431 3.35016721,23.7701011 4.05639617,24.0759876 C4.76262514,24.3818741 6.61044364,24.101037 7.75219386,22.9081615 L8.11863406,22.5213189 C8.65023803,21.9532631 8.95102523,21.5963214 9.02099567,21.4504937 C7.01113105,21.4823284 5.68123165,21.2896645 5.03129746,20.8725019 C4.05639617,20.246758 3.3923749,18.9514474 3.3923749,17.6206638 C3.3923749,16.2898802 3.77036942,15.8032451 3.77036942,14.9729038 C3.77036942,14.1425625 2.42304417,13.2467326 2.7128739,12.7400688 C3.00270362,12.2334051 4.55405058,12.6525324 5.20580591,13.8513564 C5.85756125,15.0501804 5.37351186,16.4455249 5.62873985,17.490778 C5.88396784,18.5360312 7.49787645,19.6095536 9.02099567,18.5746149 C10.5130308,17.5607974 10.184801,15.7158301 9.36444071,14.278616 L9.31253941,14.1893323 C8.45474415,12.7400688 7.06792506,7.86103345 10.2770574,4.5949486 C13.4861898,1.32886375 19.0403707,1.78922342 21.6926649,4.5949486 Z M12.202256,9.25467133 C11.7087241,9.25467133 11.3086376,9.76421722 11.3086376,10.3927739 C11.3086376,11.0213306 11.7087241,11.5308765 12.202256,11.5308765 C12.6957878,11.5308765 13.0958744,11.0213306 13.0958744,10.3927739 C13.0958744,9.76421722 12.6957878,9.25467133 12.202256,9.25467133 Z M19.3512033,9.25467133 C18.8576714,9.25467133 18.4575849,9.76421722 18.4575849,10.3927739 C18.4575849,11.0213306 18.8576714,11.5308765 19.3512033,11.5308765 C19.8447351,11.5308765 20.2448217,11.0213306 20.2448217,10.3927739 C20.2448217,9.76421722 19.8447351,9.25467133 19.3512033,9.25467133 Z"/></svg>