<svg xmlns="http://www.w3.org/2000/svg" width="32" height="32" viewBox="0 0 32 32"><path fill="#020E36" fill-rule="evenodd" d="M21.2177201,6.75285988 L21.2565525,6.67396821 C21.8818817,5.4261385 22.0732383,6.16068924 22.3792959,6.87912982 L22.406768,6.94278389 L22.444045,7.02603801 C22.5705085,7.30161879 22.7201258,7.5539219 22.9254133,7.66450894 L23.1166115,7.76543668 C24.0878164,8.28307427 25.0281764,8.87584762 25.0281764,9.78003383 C25.5235917,8.94225323 27.4961802,8.81655673 28.2244637,8.7191059 C28.9527473,8.62165507 29.8873471,6.57989291 29.9958118,8.51217973 C30.1042765,10.4444665 28.0913823,13.057818 25.6567106,12.8968396 C25.6567106,16.3791223 24.3712745,19.4405802 21.8004023,22.0812131 C22.033943,22.3458039 22.5200989,22.5651346 23.2588701,22.7392053 L23.326727,22.7549052 C24.4921252,23.0196843 24.8276576,23.9796023 23.7199291,24.2237132 C22.6122005,24.4678241 21.1351461,24.439546 19.7778179,23.9513242 C17.1471631,26.574331 11.0713282,26.7893382 7.26858108,23.9513242 C3.465834,21.1133102 1.53437387,14.7409442 4.31680901,10.6100246 C6.17176577,7.85607828 9.08154582,6.82517773 13.0461492,7.51732301 C13.6526206,7.14303319 14.4198244,6.8360476 15.3477606,6.59636623 C16.2756967,6.35668487 17.0048503,6.44438849 17.5352215,6.85947708 C16.8074974,7.25040719 16.4436353,7.69049465 16.4436353,8.17973948 C16.4436353,8.91360672 17.1040669,9.25269831 17.8070388,9.78003383 C18.0858035,9.98914964 18.4728773,10.3318855 18.8581763,10.6928205 L18.9585765,10.7873144 L19.0584618,10.8821786 C19.5284013,11.3304568 19.9665729,11.7758891 20.1669747,12.0024862 L20.2168987,12.0602686 C20.5320591,12.4361197 22.3691678,13.8139664 22.6579716,13.8139664 L22.708805,13.8134101 C22.9242431,13.8063336 22.7837664,13.7105689 23.2246141,12.4361197 C21.8034562,11.8026455 20.2664173,8.7191059 21.2177201,6.75285988 Z M5.09577471,13.2706952 C4.60896016,14.6194012 5.98070064,19.8867737 9.14862438,22.1623147 C11.6379935,23.867734 12.4822617,23.0709962 12.7650774,22.8535172 C13.0478931,22.6360381 11.5207642,21.362294 12.2472949,20.8004534 C12.6541522,20.4858226 13.7222036,21.1833973 14.7659911,21.954372 L14.9890387,22.1203622 L15.2892892,22.3466244 C15.9160772,22.8210071 16.4895926,23.2630057 16.8489229,23.452234 C17.5423673,23.8174113 18.5927263,24 20,24 L19.6146403,23.6391059 C18.1677798,22.2761428 17.2220032,21.2901086 16.7773106,20.6810033 C16.0617134,19.700834 14.583073,16.9056958 12.6232566,15.4180412 L12.5495385,15.3628731 C10.7642256,14.0319814 8.0242642,12.3318635 5.09577471,13.2706952 Z M19.0742783,14.4562358 C18.3313155,13.7613424 17.2829738,14.0072918 17.0875253,14.2385029 C16.8964201,14.464576 17.0134815,14.843812 17.4858709,14.8605553 L17.5186304,14.8611292 C18.0095331,14.8611292 18.6275585,15.4118442 18.5326354,16.0112727 L18.5268634,16.0434287 C18.4040556,16.6551692 18.5817044,17.5856943 19.442155,17.881776 C20.3026057,18.1778577 20.9142586,17.881776 20.9953515,17.392781 C21.0764445,16.903786 20.0829934,15.2484899 19.0742783,14.4562358 Z M17.5,16 C17.2238576,16 17,16.2238576 17,16.5 C17,16.7761424 17.2238576,17 17.5,17 C17.7761424,17 18,16.7761424 18,16.5 C18,16.2238576 17.7761424,16 17.5,16 Z"/></svg>